<svg xmlns="http://www.w3.org/2000/svg" width="512" height="512" viewBox="0 0 512 512">
  <defs>
    <filter id="softShadow" x="-20%" y="-20%" width="140%" height="140%">
      <feDropShadow dx="0" dy="12" stdDeviation="16" flood-color="#101820" flood-opacity="0.12"/>
    </filter>
  </defs>
  <rect x="28" y="28" width="456" height="456" rx="92" fill="#fbf8f0"/>
  <rect x="72" y="72" width="368" height="368" rx="48" fill="#fffefa" stroke="#23282d" stroke-width="13" filter="url(#softShadow)"/>
  <g><rect x="96" y="96" width="20" height="20" rx="4.5" fill="#ff4f1f"/><rect x="121" y="96" width="20" height="20" rx="4.5" fill="#ff4f1f"/><rect x="146" y="96" width="20" height="20" rx="4.5" fill="#ff4f1f"/><rect x="171" y="96" width="20" height="20" rx="4.5" fill="#ff4f1f"/><rect x="196" y="96" width="20" height="20" rx="4.5" fill="#ff4f1f"/><rect x="221" y="96" width="20" height="20" rx="4.5" fill="#ff4f1f"/><rect x="246" y="96" width="20" height="20" rx="4.5" fill="#ff4f1f"/>
          <clipPath id="cell-0-7"><rect x="271" y="96" width="20" height="20" rx="4.5"/></clipPath>
          <rect x="271" y="96" width="20" height="20" rx="4.5" fill="#ff4f1f"/>
          <rect x="279.8" y="96" width="11.200000000000001" height="20" fill="#72f000" clip-path="url(#cell-0-7)"/><rect x="296" y="96" width="20" height="20" rx="4.5" fill="#72f000"/><rect x="321" y="96" width="20" height="20" rx="4.5" fill="#ff4f1f"/><rect x="346" y="96" width="20" height="20" rx="4.5" fill="#72f000"/><rect x="371" y="96" width="20" height="20" rx="4.5" fill="#ff4f1f"/><rect x="396" y="96" width="20" height="20" rx="4.5" fill="#72f000"/><rect x="96" y="121" width="20" height="20" rx="4.5" fill="#ff4f1f"/><rect x="121" y="121" width="20" height="20" rx="4.5" fill="#ff4f1f"/><rect x="146" y="121" width="20" height="20" rx="4.5" fill="#ff4f1f"/><rect x="171" y="121" width="20" height="20" rx="4.5" fill="#ff4f1f"/><rect x="196" y="121" width="20" height="20" rx="4.5" fill="#ff4f1f"/><rect x="221" y="121" width="20" height="20" rx="4.5" fill="#ff4f1f"/>
          <clipPath id="cell-1-6"><rect x="246" y="121" width="20" height="20" rx="4.5"/></clipPath>
          <rect x="246" y="121" width="20" height="20" rx="4.5" fill="#ff4f1f"/>
          <rect x="254.8" y="121" width="11.200000000000001" height="20" fill="#72f000" clip-path="url(#cell-1-6)"/><rect x="271" y="121" width="20" height="20" rx="4.5" fill="#72f000"/><rect x="296" y="121" width="20" height="20" rx="4.5" fill="#72f000"/><rect x="321" y="121" width="20" height="20" rx="4.5" fill="#72f000"/><rect x="346" y="121" width="20" height="20" rx="4.5" fill="#72f000"/>
          <clipPath id="cell-1-11"><rect x="371" y="121" width="20" height="20" rx="4.5"/></clipPath>
          <rect x="371" y="121" width="20" height="20" rx="4.5" fill="#ff4f1f"/>
          <rect x="379.8" y="121" width="11.200000000000001" height="20" fill="#72f000" clip-path="url(#cell-1-11)"/><rect x="396" y="121" width="20" height="20" rx="4.5" fill="#72f000"/><rect x="96" y="146" width="20" height="20" rx="4.5" fill="#ff4f1f"/><rect x="121" y="146" width="20" height="20" rx="4.5" fill="#ff4f1f"/><rect x="146" y="146" width="20" height="20" rx="4.5" fill="#ff4f1f"/><rect x="171" y="146" width="20" height="20" rx="4.5" fill="#ff4f1f"/><rect x="196" y="146" width="20" height="20" rx="4.5" fill="#ff4f1f"/>
          <clipPath id="cell-2-5"><rect x="221" y="146" width="20" height="20" rx="4.5"/></clipPath>
          <rect x="221" y="146" width="20" height="20" rx="4.5" fill="#ff4f1f"/>
          <rect x="229.8" y="146" width="11.200000000000001" height="20" fill="#72f000" clip-path="url(#cell-2-5)"/><rect x="246" y="146" width="20" height="20" rx="4.5" fill="#72f000"/><rect x="271" y="146" width="20" height="20" rx="4.5" fill="#72f000"/><rect x="296" y="146" width="20" height="20" rx="4.5" fill="#72f000"/><rect x="321" y="146" width="20" height="20" rx="4.5" fill="#72f000"/><rect x="346" y="146" width="20" height="20" rx="4.5" fill="#72f000"/><rect x="371" y="146" width="20" height="20" rx="4.5" fill="#72f000"/><rect x="396" y="146" width="20" height="20" rx="4.5" fill="#72f000"/><rect x="96" y="171" width="20" height="20" rx="4.5" fill="#ff4f1f"/><rect x="121" y="171" width="20" height="20" rx="4.5" fill="#ff4f1f"/><rect x="146" y="171" width="20" height="20" rx="4.5" fill="#ff4f1f"/><rect x="171" y="171" width="20" height="20" rx="4.5" fill="#ff4f1f"/><rect x="196" y="171" width="20" height="20" rx="4.5" fill="#ff4f1f"/>
          <clipPath id="cell-3-5"><rect x="221" y="171" width="20" height="20" rx="4.5"/></clipPath>
          <rect x="221" y="171" width="20" height="20" rx="4.5" fill="#ff4f1f"/>
          <rect x="229.8" y="171" width="11.200000000000001" height="20" fill="#72f000" clip-path="url(#cell-3-5)"/><rect x="246" y="171" width="20" height="20" rx="4.5" fill="#72f000"/><rect x="271" y="171" width="20" height="20" rx="4.5" fill="#ff4f1f"/><rect x="296" y="171" width="20" height="20" rx="4.5" fill="#72f000"/><rect x="321" y="171" width="20" height="20" rx="4.5" fill="#72f000"/><rect x="346" y="171" width="20" height="20" rx="4.5" fill="#72f000"/><rect x="371" y="171" width="20" height="20" rx="4.5" fill="#72f000"/><rect x="396" y="171" width="20" height="20" rx="4.5" fill="#72f000"/>
          <clipPath id="cell-4-0"><rect x="96" y="196" width="20" height="20" rx="4.5"/></clipPath>
          <rect x="96" y="196" width="20" height="20" rx="4.5" fill="#ff4f1f"/>
          <rect x="104.8" y="196" width="11.200000000000001" height="20" fill="#72f000" clip-path="url(#cell-4-0)"/>
          <clipPath id="cell-4-1"><rect x="121" y="196" width="20" height="20" rx="4.5"/></clipPath>
          <rect x="121" y="196" width="20" height="20" rx="4.5" fill="#ff4f1f"/>
          <rect x="129.8" y="196" width="11.200000000000001" height="20" fill="#72f000" clip-path="url(#cell-4-1)"/><rect x="146" y="196" width="20" height="20" rx="4.5" fill="#72f000"/><rect x="171" y="196" width="20" height="20" rx="4.5" fill="#72f000"/><rect x="196" y="196" width="20" height="20" rx="4.5" fill="#ff4f1f"/>
          <clipPath id="cell-4-5"><rect x="221" y="196" width="20" height="20" rx="4.5"/></clipPath>
          <rect x="221" y="196" width="20" height="20" rx="4.5" fill="#ff4f1f"/>
          <rect x="229.8" y="196" width="11.200000000000001" height="20" fill="#72f000" clip-path="url(#cell-4-5)"/><rect x="246" y="196" width="20" height="20" rx="4.5" fill="#ff4f1f"/>
          <clipPath id="cell-4-7"><rect x="271" y="196" width="20" height="20" rx="4.5"/></clipPath>
          <rect x="271" y="196" width="20" height="20" rx="4.5" fill="#ff4f1f"/>
          <rect x="279.8" y="196" width="11.200000000000001" height="20" fill="#72f000" clip-path="url(#cell-4-7)"/><rect x="296" y="196" width="20" height="20" rx="4.5" fill="#72f000"/><rect x="321" y="196" width="20" height="20" rx="4.5" fill="#72f000"/><rect x="346" y="196" width="20" height="20" rx="4.5" fill="#72f000"/><rect x="371" y="196" width="20" height="20" rx="4.5" fill="#72f000"/><rect x="396" y="196" width="20" height="20" rx="4.5" fill="#72f000"/>
          <clipPath id="cell-5-0"><rect x="96" y="221" width="20" height="20" rx="4.5"/></clipPath>
          <rect x="96" y="221" width="20" height="20" rx="4.5" fill="#ff4f1f"/>
          <rect x="104.8" y="221" width="11.200000000000001" height="20" fill="#72f000" clip-path="url(#cell-5-0)"/><rect x="121" y="221" width="20" height="20" rx="4.5" fill="#72f000"/><rect x="146" y="221" width="20" height="20" rx="4.5" fill="#72f000"/><rect x="171" y="221" width="20" height="20" rx="4.5" fill="#72f000"/><rect x="196" y="221" width="20" height="20" rx="4.5" fill="#72f000"/><rect x="221" y="221" width="20" height="20" rx="4.5" fill="#ff4f1f"/>
          <clipPath id="cell-5-6"><rect x="246" y="221" width="20" height="20" rx="4.5"/></clipPath>
          <rect x="246" y="221" width="20" height="20" rx="4.5" fill="#ff4f1f"/>
          <rect x="254.8" y="221" width="11.200000000000001" height="20" fill="#72f000" clip-path="url(#cell-5-6)"/><rect x="271" y="221" width="20" height="20" rx="4.5" fill="#ff4f1f"/><rect x="296" y="221" width="20" height="20" rx="4.5" fill="#ff4f1f"/>
          <clipPath id="cell-5-9"><rect x="321" y="221" width="20" height="20" rx="4.5"/></clipPath>
          <rect x="321" y="221" width="20" height="20" rx="4.5" fill="#ff4f1f"/>
          <rect x="329.8" y="221" width="11.200000000000001" height="20" fill="#72f000" clip-path="url(#cell-5-9)"/><rect x="346" y="221" width="20" height="20" rx="4.5" fill="#72f000"/><rect x="371" y="221" width="20" height="20" rx="4.5" fill="#72f000"/><rect x="396" y="221" width="20" height="20" rx="4.5" fill="#72f000"/><rect x="96" y="246" width="20" height="20" rx="4.5" fill="#72f000"/><rect x="121" y="246" width="20" height="20" rx="4.5" fill="#72f000"/><rect x="146" y="246" width="20" height="20" rx="4.5" fill="#72f000"/><rect x="171" y="246" width="20" height="20" rx="4.5" fill="#72f000"/><rect x="196" y="246" width="20" height="20" rx="4.5" fill="#72f000"/><rect x="221" y="246" width="20" height="20" rx="4.5" fill="#72f000"/><rect x="246" y="246" width="20" height="20" rx="4.5" fill="#ff4f1f"/><rect x="271" y="246" width="20" height="20" rx="4.5" fill="#ff4f1f"/><rect x="296" y="246" width="20" height="20" rx="4.5" fill="#ff4f1f"/><rect x="321" y="246" width="20" height="20" rx="4.5" fill="#72f000"/><rect x="346" y="246" width="20" height="20" rx="4.5" fill="#72f000"/><rect x="371" y="246" width="20" height="20" rx="4.5" fill="#72f000"/><rect x="396" y="246" width="20" height="20" rx="4.5" fill="#72f000"/><rect x="96" y="271" width="20" height="20" rx="4.5" fill="#72f000"/><rect x="121" y="271" width="20" height="20" rx="4.5" fill="#72f000"/><rect x="146" y="271" width="20" height="20" rx="4.5" fill="#72f000"/><rect x="171" y="271" width="20" height="20" rx="4.5" fill="#72f000"/><rect x="196" y="271" width="20" height="20" rx="4.5" fill="#72f000"/><rect x="221" y="271" width="20" height="20" rx="4.5" fill="#72f000"/><rect x="246" y="271" width="20" height="20" rx="4.5" fill="#72f000"/><rect x="271" y="271" width="20" height="20" rx="4.5" fill="#ff4f1f"/><rect x="296" y="271" width="20" height="20" rx="4.5" fill="#ff4f1f"/><rect x="321" y="271" width="20" height="20" rx="4.5" fill="#ff4f1f"/>
          <clipPath id="cell-7-10"><rect x="346" y="271" width="20" height="20" rx="4.5"/></clipPath>
          <rect x="346" y="271" width="20" height="20" rx="4.5" fill="#ff4f1f"/>
          <rect x="354.8" y="271" width="11.200000000000001" height="20" fill="#72f000" clip-path="url(#cell-7-10)"/><rect x="371" y="271" width="20" height="20" rx="4.5" fill="#72f000"/><rect x="396" y="271" width="20" height="20" rx="4.5" fill="#72f000"/><rect x="96" y="296" width="20" height="20" rx="4.5" fill="#72f000"/><rect x="121" y="296" width="20" height="20" rx="4.5" fill="#72f000"/><rect x="146" y="296" width="20" height="20" rx="4.5" fill="#72f000"/><rect x="171" y="296" width="20" height="20" rx="4.5" fill="#d4d8dd"/><rect x="196" y="296" width="20" height="20" rx="4.5" fill="#d4d8dd"/><rect x="221" y="296" width="20" height="20" rx="4.5" fill="#72f000"/><rect x="246" y="296" width="20" height="20" rx="4.5" fill="#72f000"/><rect x="271" y="296" width="20" height="20" rx="4.5" fill="#72f000"/><rect x="296" y="296" width="20" height="20" rx="4.5" fill="#ff4f1f"/><rect x="321" y="296" width="20" height="20" rx="4.5" fill="#ff4f1f"/>
          <clipPath id="cell-8-10"><rect x="346" y="296" width="20" height="20" rx="4.5"/></clipPath>
          <rect x="346" y="296" width="20" height="20" rx="4.5" fill="#ff4f1f"/>
          <rect x="354.8" y="296" width="11.200000000000001" height="20" fill="#72f000" clip-path="url(#cell-8-10)"/><rect x="371" y="296" width="20" height="20" rx="4.5" fill="#72f000"/><rect x="396" y="296" width="20" height="20" rx="4.5" fill="#72f000"/><rect x="96" y="321" width="20" height="20" rx="4.5" fill="#72f000"/><rect x="121" y="321" width="20" height="20" rx="4.5" fill="#72f000"/><rect x="146" y="321" width="20" height="20" rx="4.5" fill="#72f000"/><rect x="171" y="321" width="20" height="20" rx="4.5" fill="#d4d8dd"/><rect x="196" y="321" width="20" height="20" rx="4.5" fill="#d4d8dd"/><rect x="221" y="321" width="20" height="20" rx="4.5" fill="#d4d8dd"/><rect x="246" y="321" width="20" height="20" rx="4.5" fill="#72f000"/><rect x="271" y="321" width="20" height="20" rx="4.5" fill="#72f000"/><rect x="296" y="321" width="20" height="20" rx="4.5" fill="#72f000"/><rect x="321" y="321" width="20" height="20" rx="4.5" fill="#ff4f1f"/><rect x="346" y="321" width="20" height="20" rx="4.5" fill="#72f000"/>
          <clipPath id="cell-9-11"><rect x="371" y="321" width="20" height="20" rx="4.5"/></clipPath>
          <rect x="371" y="321" width="20" height="20" rx="4.5" fill="#ff4f1f"/>
          <rect x="379.8" y="321" width="11.200000000000001" height="20" fill="#72f000" clip-path="url(#cell-9-11)"/><rect x="396" y="321" width="20" height="20" rx="4.5" fill="#72f000"/><rect x="96" y="346" width="20" height="20" rx="4.5" fill="#72f000"/><rect x="121" y="346" width="20" height="20" rx="4.5" fill="#72f000"/><rect x="146" y="346" width="20" height="20" rx="4.5" fill="#d4d8dd"/><rect x="171" y="346" width="20" height="20" rx="4.5" fill="#d4d8dd"/><rect x="196" y="346" width="20" height="20" rx="4.5" fill="#d4d8dd"/><rect x="221" y="346" width="20" height="20" rx="4.5" fill="#d4d8dd"/><rect x="246" y="346" width="20" height="20" rx="4.5" fill="#d4d8dd"/><rect x="271" y="346" width="20" height="20" rx="4.5" fill="#72f000"/><rect x="296" y="346" width="20" height="20" rx="4.5" fill="#72f000"/><rect x="321" y="346" width="20" height="20" rx="4.5" fill="#72f000"/><rect x="346" y="346" width="20" height="20" rx="4.5" fill="#ff4f1f"/><rect x="371" y="346" width="20" height="20" rx="4.5" fill="#72f000"/><rect x="396" y="346" width="20" height="20" rx="4.5" fill="#72f000"/><rect x="96" y="371" width="20" height="20" rx="4.5" fill="#72f000"/><rect x="121" y="371" width="20" height="20" rx="4.5" fill="#72f000"/><rect x="146" y="371" width="20" height="20" rx="4.5" fill="#d4d8dd"/><rect x="171" y="371" width="20" height="20" rx="4.5" fill="#d4d8dd"/><rect x="196" y="371" width="20" height="20" rx="4.5" fill="#d4d8dd"/><rect x="221" y="371" width="20" height="20" rx="4.5" fill="#d4d8dd"/><rect x="246" y="371" width="20" height="20" rx="4.5" fill="#d4d8dd"/><rect x="271" y="371" width="20" height="20" rx="4.5" fill="#d4d8dd"/><rect x="296" y="371" width="20" height="20" rx="4.5" fill="#72f000"/><rect x="321" y="371" width="20" height="20" rx="4.5" fill="#72f000"/><rect x="346" y="371" width="20" height="20" rx="4.5" fill="#72f000"/><rect x="371" y="371" width="20" height="20" rx="4.5" fill="#ff4f1f"/><rect x="396" y="371" width="20" height="20" rx="4.5" fill="#72f000"/><rect x="96" y="396" width="20" height="20" rx="4.5" fill="#72f000"/><rect x="121" y="396" width="20" height="20" rx="4.5" fill="#d4d8dd"/><rect x="146" y="396" width="20" height="20" rx="4.5" fill="#d4d8dd"/><rect x="171" y="396" width="20" height="20" rx="4.5" fill="#d4d8dd"/><rect x="196" y="396" width="20" height="20" rx="4.5" fill="#d4d8dd"/><rect x="221" y="396" width="20" height="20" rx="4.5" fill="#d4d8dd"/><rect x="246" y="396" width="20" height="20" rx="4.5" fill="#d4d8dd"/><rect x="271" y="396" width="20" height="20" rx="4.5" fill="#d4d8dd"/><rect x="296" y="396" width="20" height="20" rx="4.5" fill="#d4d8dd"/><rect x="321" y="396" width="20" height="20" rx="4.5" fill="#72f000"/><rect x="346" y="396" width="20" height="20" rx="4.5" fill="#72f000"/><rect x="371" y="396" width="20" height="20" rx="4.5" fill="#72f000"/><rect x="396" y="396" width="20" height="20" rx="4.5" fill="#ff4f1f"/>
  </g>
</svg>